<?xml version="1.0" encoding="UTF-8" standalone="no"?>
<!DOCTYPE svg PUBLIC "-//W3C//DTD SVG 1.1//EN"
 "http://www.w3.org/Graphics/SVG/1.1/DTD/svg11.dtd">
<!-- Generated by graphviz version 2.40.1 (20161225.0304)
 -->
<!-- Title: dependencies Pages: 1 -->
<svg width="591pt" height="211pt"
 viewBox="0.00 0.00 591.00 211.00" xmlns="http://www.w3.org/2000/svg" xmlns:xlink="http://www.w3.org/1999/xlink">
<g id="graph0" class="graph" transform="scale(1 1) rotate(0) translate(4 207)">
<title>dependencies</title>
<polygon fill="#ffffff" stroke="transparent" points="-4,4 -4,-207 587,-207 587,4 -4,4"/>
<text text-anchor="start" x="270.5091" y="-42.4" font-family="sans-serif" font-weight="bold" font-size="14.00" fill="#000000">Legend</text>
<polygon fill="#ffffb3" stroke="transparent" points="57.5,-10 57.5,-30 77.5,-30 77.5,-10 57.5,-10"/>
<text text-anchor="start" x="81.129" y="-15.4" font-family="sans-serif" font-size="14.00" fill="#000000"> &#160;Declarations</text>
<polygon fill="#8dd3c7" stroke="transparent" points="170.5,-10 170.5,-30 190.5,-30 190.5,-10 170.5,-10"/>
<text text-anchor="start" x="194.2251" y="-15.4" font-family="sans-serif" font-size="14.00" fill="#000000"> &#160;Module</text>
<polygon fill="#80b1d3" stroke="transparent" points="256.5,-10 256.5,-30 276.5,-30 276.5,-10 256.5,-10"/>
<text text-anchor="start" x="280.2812" y="-15.4" font-family="sans-serif" font-size="14.00" fill="#000000"> &#160;Bootstrap</text>
<polygon fill="#fdb462" stroke="transparent" points="353.5,-10 353.5,-30 373.5,-30 373.5,-10 353.5,-10"/>
<text text-anchor="start" x="377.1732" y="-15.4" font-family="sans-serif" font-size="14.00" fill="#000000"> &#160;Providers</text>
<polygon fill="#fb8072" stroke="transparent" points="449.5,-10 449.5,-30 469.5,-30 469.5,-10 449.5,-10"/>
<text text-anchor="start" x="473.2258" y="-15.4" font-family="sans-serif" font-size="14.00" fill="#000000"> &#160;Exports</text>
<g id="clust1" class="cluster">
<title>cluster_Angular2RestServiceModule</title>
<polygon fill="none" stroke="#000000" stroke-dasharray="1,5" points="8,-70 8,-195 575,-195 575,-70 8,-70"/>
</g>
<g id="clust3" class="cluster">
<title>cluster_Angular2RestServiceModule_imports</title>
<polygon fill="none" stroke="#000000" points="467,-78 467,-130 567,-130 567,-78 467,-78"/>
</g>
<g id="clust6" class="cluster">
<title>cluster_Angular2RestServiceModule_providers</title>
<polygon fill="none" stroke="#000000" points="16,-78 16,-130 459,-130 459,-78 16,-78"/>
</g>
<!-- HttpModule -->
<g id="node1" class="node">
<title>HttpModule</title>
<polygon fill="#8dd3c7" stroke="#000000" points="559.4387,-122 556.4387,-126 535.4387,-126 532.4387,-122 474.5613,-122 474.5613,-86 559.4387,-86 559.4387,-122"/>
<text text-anchor="middle" x="517" y="-99.8" font-family="Times,serif" font-size="14.00" fill="#000000">HttpModule</text>
</g>
<!-- Angular2RestServiceModule -->
<g id="node2" class="node">
<title>Angular2RestServiceModule</title>
<polygon fill="#8dd3c7" stroke="#000000" points="446.7864,-187 443.7864,-191 422.7864,-191 419.7864,-187 267.2136,-187 267.2136,-151 446.7864,-151 446.7864,-187"/>
<text text-anchor="middle" x="357" y="-164.8" font-family="Times,serif" font-size="14.00" fill="#000000">Angular2RestServiceModule</text>
</g>
<!-- HttpModule&#45;&gt;Angular2RestServiceModule -->
<g id="edge1" class="edge">
<title>HttpModule&#45;&gt;Angular2RestServiceModule</title>
<path fill="none" stroke="#000000" d="M517,-122.1061C517,-141.3391 517,-169 517,-169 517,-169 456.8217,-169 456.8217,-169"/>
<polygon fill="#000000" stroke="#000000" points="456.8217,-165.5001 446.8217,-169 456.8216,-172.5001 456.8217,-165.5001"/>
</g>
<!-- Angular2RestService -->
<g id="node3" class="node">
<title>Angular2RestService</title>
<ellipse fill="#fdb462" stroke="#000000" cx="357" cy="-104" rx="93.7572" ry="18"/>
<text text-anchor="middle" x="357" y="-99.8" font-family="Times,serif" font-size="14.00" fill="#000000">Angular2RestService</text>
</g>
<!-- Angular2RestService&#45;&gt;Angular2RestServiceModule -->
<g id="edge2" class="edge">
<title>Angular2RestService&#45;&gt;Angular2RestServiceModule</title>
<path fill="none" stroke="#000000" d="M357,-122.1061C357,-122.1061 357,-140.991 357,-140.991"/>
<polygon fill="#000000" stroke="#000000" points="353.5001,-140.9909 357,-150.991 360.5001,-140.991 353.5001,-140.9909"/>
</g>
<!-- Angular2RestServiceHttp -->
<g id="node4" class="node">
<title>Angular2RestServiceHttp</title>
<ellipse fill="#fdb462" stroke="#000000" cx="135" cy="-104" rx="110.5917" ry="18"/>
<text text-anchor="middle" x="135" y="-99.8" font-family="Times,serif" font-size="14.00" fill="#000000">Angular2RestServiceHttp</text>
</g>
<!-- Angular2RestServiceHttp&#45;&gt;Angular2RestServiceModule -->
<g id="edge3" class="edge">
<title>Angular2RestServiceHttp&#45;&gt;Angular2RestServiceModule</title>
<path fill="none" stroke="#000000" d="M135,-122.1061C135,-141.3391 135,-169 135,-169 135,-169 257.344,-169 257.344,-169"/>
<polygon fill="#000000" stroke="#000000" points="257.344,-172.5001 267.344,-169 257.344,-165.5001 257.344,-172.5001"/>
</g>
</g>
</svg>
